# xmcd
#
# Track frame offsets:
# 150
# 40346
# 84746
# 117263
# 139390
# 166817
# 184903
# 212303
# 240426
# 277734
#
# Disc length: 4048 seconds
#
#
# Revision: 0
# Processed by: cddbd v1.5.2PL0 Copyright (c) Steve Scherf et al.
# Submitted via: FreeRIP 2.951 
#
DISCID=820fce0a
DTITLE=Karin Slaughter - Verstummt CD2
DYEAR=2008
DGENRE=Hörbuch
TTITLE0=10 Verstummt
TTITLE1=11 Verstummt
TTITLE2=12 Verstummt
TTITLE3=13 Verstummt
TTITLE4=14 Verstummt
TTITLE5=15 Verstummt
TTITLE6=16 Verstummt
TTITLE7=17 Verstummt
TTITLE8=18  Verstummt
TTITLE9=19 Verstummt
EXTD=gelesen von Nina Petri
EXTT0=
EXTT1=
EXTT2=
EXTT3=
EXTT4=
EXTT5=
EXTT6=
EXTT7=
EXTT8=
EXTT9=
PLAYORDER=
